<svg xmlns="http://www.w3.org/2000/svg">

  
    <symbol id="search" viewBox="0 0 24 24" >
      <path d="M11 19C15.4183 19 19 15.4183 19 11C19 6.58172 15.4183 3 11 3C6.58172 3 3 6.58172 3 11C3 15.4183 6.58172 19 11 19Z" stroke="white" stroke-width="2" stroke-linecap="round" stroke-linejoin="round"/>
      <path d="M20.9999 21L16.6499 16.65" stroke="white" stroke-width="2" stroke-linecap="round" stroke-linejoin="round"/>
    </symbol>
  
  <symbol id="burger" viewBox="0 0 30 30" >
    <path d="M3.75 15H21.25" stroke-linecap="round" stroke-linejoin="round"/>
    <path d="M3.75 7.5H26.25" stroke-linecap="round" stroke-linejoin="round"/>
    <path d="M3.75 22.5H26.25" stroke-linecap="round" stroke-linejoin="round"/>
  </symbol>

  <symbol id="place" viewBox="0 0 18 18">
    <path d="M2.25 8.25L16.5 1.5L9.75 15.75L8.25 9.75L2.25 8.25Z"/>
  </symbol>

  <symbol id="vk">
    <path d="M13.0718 20C4.87192 20 0.19488 14.2943 0 4.8H4.10744C4.24232 11.7686 7.2704 14.7203 9.66888 15.329V4.8H13.5366V10.81C15.9051 10.5514 18.3933 7.81264 19.2327 4.8H23.1004C22.4558 8.51248 19.7575 11.2513 17.8387 12.3772C19.7575 13.2901 22.8307 15.6789 24 20H19.7425C18.8281 17.1091 16.5498 14.8725 13.5366 14.5682V20H13.0718Z"/>
  </symbol>

  <symbol id="google">
    <path d="M19.7616 10.1871C19.7616 9.3677 19.6951 8.76977 19.5512 8.14969H10.1946V11.848H15.6867C15.576 12.7671 14.9781 14.1512 13.6493 15.0813L13.6307 15.2051L16.5891 17.4969L16.794 17.5174C18.6764 15.7789 19.7616 13.2211 19.7616 10.1871Z" />
    <path d="M10.1947 19.9313C12.8854 19.9313 15.1442 19.0454 16.7941 17.5174L13.6494 15.0813C12.8079 15.6682 11.6784 16.0779 10.1947 16.0779C7.55932 16.0779 5.3226 14.3395 4.52527 11.9366L4.4084 11.9466L1.33222 14.3273L1.29199 14.4391C2.93077 17.6945 6.29695 19.9313 10.1947 19.9313Z" />
    <path d="M4.52526 11.9366C4.31488 11.3166 4.19313 10.6521 4.19313 9.96565C4.19313 9.27908 4.31488 8.61473 4.51419 7.99466L4.50862 7.8626L1.39389 5.44366L1.29198 5.49214C0.616561 6.84305 0.229004 8.36008 0.229004 9.96565C0.229004 11.5712 0.616561 13.0882 1.29198 14.4391L4.52526 11.9366Z" />
    <path d="M10.1947 3.85336C12.066 3.85336 13.3283 4.66168 14.048 5.33718L16.8605 2.59107C15.1332 0.985496 12.8854 0 10.1947 0C6.29695 0 2.93077 2.23672 1.29199 5.49214L4.51421 7.99466C5.3226 5.59183 7.55932 3.85336 10.1947 3.85336Z" />
  </symbol>

  <symbol id="yandex">
    <path d="M25.8156 16.7039H24.26C21.4079 16.7039 19.9077 18.1485 19.9077 20.2783C19.9077 22.6859 20.9449 23.814 23.0747 25.2602L24.8341 26.4455L19.7781 34H16L20.5374 27.2419C17.9278 25.3713 16.463 23.5547 16.463 20.482C16.463 16.6299 19.1484 14 24.2414 14H29.2974V33.9815H25.8156V16.7039Z"/>
  </symbol>
</svg>